<svg xmlns="http://www.w3.org/2000/svg" xmlns:xlink="http://www.w3.org/1999/xlink" width="500" zoomAndPan="magnify" viewBox="0 0 375 374.999991" height="500" preserveAspectRatio="xMidYMid meet" version="1.0"><defs><g/></defs><g fill="#000000" fill-opacity="1"><g transform="translate(34.474511, 182.037267)"><g><path d="M 8.996094 0.886719 C 16.277344 0.886719 21.664062 -3.964844 21.664062 -14.03125 L 21.664062 -52.210938 C 21.664062 -55.585938 22.140625 -57.597656 23.738281 -59.195312 L 3.90625 -59.195312 C 5.503906 -57.597656 5.980469 -55.585938 5.980469 -52.210938 L 5.980469 -12.015625 C 5.980469 -10.300781 5.917969 -5.445312 1.421875 -5.445312 C 0.886719 -5.445312 0.59375 -5.210938 0.59375 -4.441406 C 0.59375 -1.65625 4.320312 0.886719 8.996094 0.886719 Z M 8.996094 0.886719 "/></g></g></g><g fill="#000000" fill-opacity="1"><g transform="translate(58.802897, 182.037267)"><g><path d="M 0.296875 -41.4375 C 1.894531 -39.839844 2.367188 -37.824219 2.367188 -34.453125 L 2.367188 -24.328125 L 2.425781 -13.023438 C 2.425781 -6.867188 3.90625 0.886719 12.550781 0.886719 C 22.554688 0.886719 23.796875 -7.339844 26.222656 -7.339844 C 26.460938 -7.339844 26.636719 -7.339844 26.636719 -5.917969 L 26.636719 -4.914062 C 26.636719 -1.894531 27.347656 0 29.894531 0 L 44.398438 0 C 42.796875 -1.597656 42.324219 -3.609375 42.324219 -6.984375 L 42.324219 -34.453125 C 42.324219 -37.824219 42.796875 -39.839844 44.398438 -41.4375 L 24.566406 -41.4375 C 26.164062 -39.839844 26.636719 -37.824219 26.636719 -34.453125 L 26.636719 -18.351562 C 26.636719 -11.78125 24.152344 -9.945312 21.429688 -9.945312 C 18.824219 -9.945312 18.054688 -12.488281 18.054688 -15.214844 L 18.054688 -34.453125 C 18.054688 -37.824219 18.527344 -39.839844 20.125 -41.4375 Z M 0.296875 -41.4375 "/></g></g></g><g fill="#000000" fill-opacity="1"><g transform="translate(103.789711, 182.037267)"><g><path d="M 1.480469 -9.234375 C 1.480469 -3.550781 6.273438 0.886719 12.015625 0.886719 C 20.480469 0.886719 22.199219 -4.617188 24.683594 -4.617188 C 25.574219 -4.617188 26.046875 -3.550781 26.222656 -2.546875 C 26.519531 -0.945312 27.527344 0 29.300781 0 L 43.804688 0 C 42.207031 -1.597656 41.734375 -3.609375 41.734375 -6.984375 L 41.734375 -24.566406 C 41.734375 -33.03125 35.339844 -42.324219 21.726562 -42.324219 C 15.449219 -42.324219 9.234375 -41.4375 5.210938 -37.589844 C 3.671875 -36.167969 4.023438 -34.039062 4.023438 -32.023438 L 4.023438 -28.769531 C 4.023438 -27.761719 4.914062 -26.875 5.859375 -26.875 C 9.53125 -26.875 13.378906 -38.949219 20.835938 -39.070312 C 25.21875 -39.128906 25.988281 -35.695312 25.988281 -33.089844 C 25.988281 -32.023438 25.574219 -30.839844 23.855469 -30.484375 C 12.726562 -28.175781 1.480469 -21.84375 1.480469 -9.234375 Z M 23.855469 -26.636719 C 25.453125 -26.636719 25.988281 -25.632812 25.988281 -22.96875 C 25.988281 -19.296875 26.046875 -17.109375 26.046875 -13.378906 C 26.046875 -9.53125 24.449219 -6.628906 21.25 -6.628906 C 16.871094 -6.628906 15.628906 -10.65625 15.628906 -14.800781 C 15.628906 -22.078125 20.007812 -26.636719 23.855469 -26.636719 Z M 23.855469 -26.636719 "/></g></g></g><g fill="#000000" fill-opacity="1"><g transform="translate(147.888621, 182.037267)"><g><path d="M 20.421875 0 C 18.824219 -1.597656 18.351562 -3.609375 18.351562 -6.984375 L 18.351562 -23.085938 C 18.351562 -29.65625 20.835938 -31.492188 23.558594 -31.492188 C 26.164062 -31.492188 26.933594 -28.945312 26.933594 -26.222656 L 26.933594 -6.984375 C 26.933594 -3.609375 26.460938 -1.597656 24.863281 0 L 44.691406 0 C 43.09375 -1.597656 42.621094 -3.609375 42.621094 -6.984375 L 42.621094 -17.109375 L 42.5625 -28.414062 C 42.5625 -34.570312 41.082031 -42.324219 32.4375 -42.324219 C 22.433594 -42.324219 21.191406 -34.097656 18.765625 -34.097656 C 18.527344 -34.097656 18.351562 -34.097656 18.351562 -35.515625 L 18.351562 -36.523438 C 18.351562 -39.542969 17.640625 -41.4375 15.09375 -41.4375 L 0.59375 -41.4375 C 2.191406 -39.839844 2.664062 -37.824219 2.664062 -34.453125 L 2.664062 -6.984375 C 2.664062 -3.609375 2.191406 -1.597656 0.59375 0 Z M 20.421875 0 "/></g></g></g><g fill="#000000" fill-opacity="1"><g transform="translate(192.875436, 182.037267)"><g/></g></g><g fill="#000000" fill-opacity="1"><g transform="translate(213.593042, 182.037267)"><g><path d="M 0.296875 -52.03125 C 3.136719 -51.261719 2.839844 -48.183594 2.839844 -47.476562 L 2.839844 -4.855469 C 2.839844 -1.835938 3.550781 0 6.097656 0 L 20.601562 0 C 19 -1.597656 18.527344 -3.609375 18.527344 -6.984375 L 18.527344 -57.773438 C 18.527344 -58.957031 18.46875 -60.082031 16.753906 -60.082031 C 13.257812 -60.082031 2.367188 -54.753906 0.0585938 -53.632812 C -0.0585938 -53.570312 -0.59375 -53.453125 -0.59375 -52.863281 C -0.59375 -52.152344 0.117188 -52.09375 0.296875 -52.03125 Z M 0.296875 -52.03125 "/></g></g></g><g fill="#000000" fill-opacity="1"><g transform="translate(234.784191, 182.037267)"><g><path d="M 0.296875 -41.4375 C 1.894531 -39.839844 2.367188 -37.824219 2.367188 -34.453125 L 2.367188 -24.328125 L 2.425781 -13.023438 C 2.425781 -6.867188 3.90625 0.886719 12.550781 0.886719 C 22.554688 0.886719 23.796875 -7.339844 26.222656 -7.339844 C 26.460938 -7.339844 26.636719 -7.339844 26.636719 -5.917969 L 26.636719 -4.914062 C 26.636719 -1.894531 27.347656 0 29.894531 0 L 44.398438 0 C 42.796875 -1.597656 42.324219 -3.609375 42.324219 -6.984375 L 42.324219 -34.453125 C 42.324219 -37.824219 42.796875 -39.839844 44.398438 -41.4375 L 24.566406 -41.4375 C 26.164062 -39.839844 26.636719 -37.824219 26.636719 -34.453125 L 26.636719 -18.351562 C 26.636719 -11.78125 24.152344 -9.945312 21.429688 -9.945312 C 18.824219 -9.945312 18.054688 -12.488281 18.054688 -15.214844 L 18.054688 -34.453125 C 18.054688 -37.824219 18.527344 -39.839844 20.125 -41.4375 Z M 0.296875 -41.4375 "/></g></g></g><g fill="#000000" fill-opacity="1"><g transform="translate(279.771005, 182.037267)"><g><path d="M 0 -35.101562 C 0 -34.390625 0.710938 -34.332031 0.886719 -34.273438 C 3.136719 -33.503906 2.839844 -30.425781 2.839844 -29.714844 L 2.839844 -6.984375 C 2.839844 -3.609375 2.367188 -1.597656 0.769531 0 L 20.601562 0 C 19 -1.597656 18.527344 -3.609375 18.527344 -6.984375 L 18.527344 -40.015625 C 18.527344 -41.199219 18.46875 -42.324219 16.753906 -42.324219 C 13.257812 -42.324219 2.960938 -36.996094 0.652344 -35.871094 C 0.53125 -35.8125 0 -35.695312 0 -35.101562 Z M 10.535156 -62.6875 C 5.328125 -62.6875 1.894531 -59.253906 1.894531 -54.046875 C 1.894531 -48.835938 5.328125 -45.402344 10.535156 -45.402344 C 15.746094 -45.402344 19.179688 -48.835938 19.179688 -54.046875 C 19.179688 -59.253906 15.746094 -62.6875 10.535156 -62.6875 Z M 10.535156 -62.6875 "/></g></g></g><g fill="#000000" fill-opacity="1"><g transform="translate(300.666197, 182.037267)"><g><path d="M 0.886719 -29.597656 C 0.886719 -17.996094 13.378906 -14.207031 22.96875 -14.207031 C 27.464844 -14.207031 30.960938 -14.976562 33.148438 -14.976562 C 34.746094 -14.976562 35.636719 -14.5625 35.636719 -13.140625 C 35.636719 -10.0625 31.375 -7.695312 27.289062 -7.695312 C 16.457031 -7.695312 10.417969 -15.507812 6.867188 -15.507812 C 4.441406 -15.507812 1.183594 -6.984375 1.183594 -4.441406 C 1.183594 -1.421875 12.964844 0.886719 21.074219 0.886719 C 27.761719 0.886719 38.832031 -2.484375 38.832031 -13.4375 C 38.832031 -24.863281 27.171875 -27.941406 16.691406 -29.773438 C 11.71875 -30.664062 7.753906 -31.847656 7.753906 -34.746094 C 7.753906 -37.707031 10.417969 -38.832031 12.488281 -38.832031 C 19.890625 -38.832031 25.574219 -27.171875 33.445312 -27.171875 C 35.578125 -27.171875 38.949219 -31.253906 38.949219 -35.222656 C 38.949219 -38.65625 30.367188 -42.324219 19.949219 -42.324219 C 11.011719 -42.324219 0.886719 -39.484375 0.886719 -29.597656 Z M 0.886719 -29.597656 "/></g></g></g><g fill="#000000" fill-opacity="1"><g transform="translate(342.543341, 192.958314)"><g><path d="M -8.996094 -0.886719 C -16.277344 -0.886719 -21.664062 3.964844 -21.664062 14.03125 L -21.664062 52.210938 C -21.664062 55.585938 -22.140625 57.597656 -23.738281 59.195312 L -3.90625 59.195312 C -5.503906 57.597656 -5.980469 55.585938 -5.980469 52.210938 L -5.980469 12.015625 C -5.980469 10.300781 -5.917969 5.445312 -1.421875 5.445312 C -0.886719 5.445312 -0.59375 5.210938 -0.59375 4.441406 C -0.59375 1.65625 -4.320312 -0.886719 -8.996094 -0.886719 Z M -8.996094 -0.886719 "/></g></g></g><g fill="#000000" fill-opacity="1"><g transform="translate(318.214956, 192.958314)"><g><path d="M -0.296875 41.4375 C -1.894531 39.839844 -2.367188 37.824219 -2.367188 34.453125 L -2.367188 24.328125 L -2.425781 13.023438 C -2.425781 6.867188 -3.90625 -0.886719 -12.550781 -0.886719 C -22.554688 -0.886719 -23.796875 7.339844 -26.222656 7.339844 C -26.460938 7.339844 -26.636719 7.339844 -26.636719 5.917969 L -26.636719 4.914062 C -26.636719 1.894531 -27.347656 0 -29.894531 0 L -44.398438 0 C -42.796875 1.597656 -42.324219 3.609375 -42.324219 6.984375 L -42.324219 34.453125 C -42.324219 37.824219 -42.796875 39.839844 -44.398438 41.4375 L -24.566406 41.4375 C -26.164062 39.839844 -26.636719 37.824219 -26.636719 34.453125 L -26.636719 18.351562 C -26.636719 11.78125 -24.152344 9.945312 -21.429688 9.945312 C -18.824219 9.945312 -18.054688 12.488281 -18.054688 15.214844 L -18.054688 34.453125 C -18.054688 37.824219 -18.527344 39.839844 -20.125 41.4375 Z M -0.296875 41.4375 "/></g></g></g><g fill="#000000" fill-opacity="1"><g transform="translate(273.228141, 192.958314)"><g><path d="M -1.480469 9.234375 C -1.480469 3.550781 -6.273438 -0.886719 -12.015625 -0.886719 C -20.480469 -0.886719 -22.199219 4.617188 -24.683594 4.617188 C -25.574219 4.617188 -26.046875 3.550781 -26.222656 2.546875 C -26.519531 0.945312 -27.527344 0 -29.300781 0 L -43.804688 0 C -42.207031 1.597656 -41.734375 3.609375 -41.734375 6.984375 L -41.734375 24.566406 C -41.734375 33.03125 -35.339844 42.324219 -21.726562 42.324219 C -15.449219 42.324219 -9.234375 41.4375 -5.210938 37.589844 C -3.671875 36.167969 -4.023438 34.039062 -4.023438 32.023438 L -4.023438 28.769531 C -4.023438 27.761719 -4.914062 26.875 -5.859375 26.875 C -9.53125 26.875 -13.378906 38.949219 -20.835938 39.070312 C -25.21875 39.128906 -25.988281 35.695312 -25.988281 33.089844 C -25.988281 32.023438 -25.574219 30.839844 -23.855469 30.484375 C -12.726562 28.175781 -1.480469 21.84375 -1.480469 9.234375 Z M -23.855469 26.636719 C -25.453125 26.636719 -25.988281 25.632812 -25.988281 22.96875 C -25.988281 19.296875 -26.046875 17.109375 -26.046875 13.378906 C -26.046875 9.53125 -24.449219 6.628906 -21.25 6.628906 C -16.871094 6.628906 -15.628906 10.65625 -15.628906 14.800781 C -15.628906 22.078125 -20.007812 26.636719 -23.855469 26.636719 Z M -23.855469 26.636719 "/></g></g></g><g fill="#000000" fill-opacity="1"><g transform="translate(229.129231, 192.958314)"><g><path d="M -20.421875 0 C -18.824219 1.597656 -18.351562 3.609375 -18.351562 6.984375 L -18.351562 23.085938 C -18.351562 29.65625 -20.835938 31.492188 -23.558594 31.492188 C -26.164062 31.492188 -26.933594 28.945312 -26.933594 26.222656 L -26.933594 6.984375 C -26.933594 3.609375 -26.460938 1.597656 -24.863281 0 L -44.691406 0 C -43.09375 1.597656 -42.621094 3.609375 -42.621094 6.984375 L -42.621094 17.109375 L -42.5625 28.414062 C -42.5625 34.570312 -41.082031 42.324219 -32.4375 42.324219 C -22.433594 42.324219 -21.191406 34.097656 -18.765625 34.097656 C -18.527344 34.097656 -18.351562 34.097656 -18.351562 35.515625 L -18.351562 36.523438 C -18.351562 39.542969 -17.640625 41.4375 -15.09375 41.4375 L -0.59375 41.4375 C -2.191406 39.839844 -2.664062 37.824219 -2.664062 34.453125 L -2.664062 6.984375 C -2.664062 3.609375 -2.191406 1.597656 -0.59375 0 Z M -20.421875 0 "/></g></g></g><g fill="#000000" fill-opacity="1"><g transform="translate(184.142417, 192.958314)"><g/></g></g><g fill="#000000" fill-opacity="1"><g transform="translate(163.42481, 192.958314)"><g><path d="M -0.296875 52.03125 C -3.136719 51.261719 -2.839844 48.183594 -2.839844 47.476562 L -2.839844 4.855469 C -2.839844 1.835938 -3.550781 0 -6.097656 0 L -20.601562 0 C -19 1.597656 -18.527344 3.609375 -18.527344 6.984375 L -18.527344 57.773438 C -18.527344 58.957031 -18.46875 60.082031 -16.753906 60.082031 C -13.257812 60.082031 -2.367188 54.753906 -0.0585938 53.632812 C 0.0585938 53.570312 0.59375 53.453125 0.59375 52.863281 C 0.59375 52.152344 -0.117188 52.09375 -0.296875 52.03125 Z M -0.296875 52.03125 "/></g></g></g><g fill="#000000" fill-opacity="1"><g transform="translate(142.233662, 192.958314)"><g><path d="M -0.296875 41.4375 C -1.894531 39.839844 -2.367188 37.824219 -2.367188 34.453125 L -2.367188 24.328125 L -2.425781 13.023438 C -2.425781 6.867188 -3.90625 -0.886719 -12.550781 -0.886719 C -22.554688 -0.886719 -23.796875 7.339844 -26.222656 7.339844 C -26.460938 7.339844 -26.636719 7.339844 -26.636719 5.917969 L -26.636719 4.914062 C -26.636719 1.894531 -27.347656 0 -29.894531 0 L -44.398438 0 C -42.796875 1.597656 -42.324219 3.609375 -42.324219 6.984375 L -42.324219 34.453125 C -42.324219 37.824219 -42.796875 39.839844 -44.398438 41.4375 L -24.566406 41.4375 C -26.164062 39.839844 -26.636719 37.824219 -26.636719 34.453125 L -26.636719 18.351562 C -26.636719 11.78125 -24.152344 9.945312 -21.429688 9.945312 C -18.824219 9.945312 -18.054688 12.488281 -18.054688 15.214844 L -18.054688 34.453125 C -18.054688 37.824219 -18.527344 39.839844 -20.125 41.4375 Z M -0.296875 41.4375 "/></g></g></g><g fill="#000000" fill-opacity="1"><g transform="translate(97.246847, 192.958314)"><g><path d="M 0 35.101562 C 0 34.390625 -0.710938 34.332031 -0.886719 34.273438 C -3.136719 33.503906 -2.839844 30.425781 -2.839844 29.714844 L -2.839844 6.984375 C -2.839844 3.609375 -2.367188 1.597656 -0.769531 0 L -20.601562 0 C -19 1.597656 -18.527344 3.609375 -18.527344 6.984375 L -18.527344 40.015625 C -18.527344 41.199219 -18.46875 42.324219 -16.753906 42.324219 C -13.257812 42.324219 -2.960938 36.996094 -0.652344 35.871094 C -0.53125 35.8125 0 35.695312 0 35.101562 Z M -10.535156 62.6875 C -5.328125 62.6875 -1.894531 59.253906 -1.894531 54.046875 C -1.894531 48.835938 -5.328125 45.402344 -10.535156 45.402344 C -15.746094 45.402344 -19.179688 48.835938 -19.179688 54.046875 C -19.179688 59.253906 -15.746094 62.6875 -10.535156 62.6875 Z M -10.535156 62.6875 "/></g></g></g><g fill="#000000" fill-opacity="1"><g transform="translate(76.351656, 192.958314)"><g><path d="M -0.886719 29.597656 C -0.886719 17.996094 -13.378906 14.207031 -22.96875 14.207031 C -27.464844 14.207031 -30.960938 14.976562 -33.148438 14.976562 C -34.746094 14.976562 -35.636719 14.5625 -35.636719 13.140625 C -35.636719 10.0625 -31.375 7.695312 -27.289062 7.695312 C -16.457031 7.695312 -10.417969 15.507812 -6.867188 15.507812 C -4.441406 15.507812 -1.183594 6.984375 -1.183594 4.441406 C -1.183594 1.421875 -12.964844 -0.886719 -21.074219 -0.886719 C -27.761719 -0.886719 -38.832031 2.484375 -38.832031 13.4375 C -38.832031 24.863281 -27.171875 27.941406 -16.691406 29.773438 C -11.71875 30.664062 -7.753906 31.847656 -7.753906 34.746094 C -7.753906 37.707031 -10.417969 38.832031 -12.488281 38.832031 C -19.890625 38.832031 -25.574219 27.171875 -33.445312 27.171875 C -35.578125 27.171875 -38.949219 31.253906 -38.949219 35.222656 C -38.949219 38.65625 -30.367188 42.324219 -19.949219 42.324219 C -11.011719 42.324219 -0.886719 39.484375 -0.886719 29.597656 Z M -0.886719 29.597656 "/></g></g></g></svg>