<svg xmlns="http://www.w3.org/2000/svg" xmlns:xlink="http://www.w3.org/1999/xlink" width="500" zoomAndPan="magnify" viewBox="0 0 375 374.999991" height="500" preserveAspectRatio="xMidYMid meet" version="1.0"><defs><g/></defs><g fill="#000000" fill-opacity="1"><g transform="translate(8.269973, 200.607877)"><g><path d="M 10.746094 1.058594 C 19.441406 1.058594 25.878906 -4.738281 25.878906 -16.757812 L 25.878906 -62.359375 C 25.878906 -66.390625 26.441406 -68.792969 28.351562 -70.703125 L 4.667969 -70.703125 C 6.574219 -68.792969 7.140625 -66.390625 7.140625 -62.359375 L 7.140625 -14.351562 C 7.140625 -12.300781 7.070312 -6.503906 1.695312 -6.503906 C 1.058594 -6.503906 0.707031 -6.222656 0.707031 -5.300781 C 0.707031 -1.980469 5.160156 1.058594 10.746094 1.058594 Z M 10.746094 1.058594 "/></g></g></g><g fill="#000000" fill-opacity="1"><g transform="translate(37.327378, 200.607877)"><g><path d="M 0.351562 -49.492188 C 2.261719 -47.582031 2.828125 -45.179688 2.828125 -41.148438 L 2.828125 -29.058594 L 2.898438 -15.554688 C 2.898438 -8.203125 4.667969 1.058594 14.988281 1.058594 C 26.9375 1.058594 28.421875 -8.765625 31.320312 -8.765625 C 31.605469 -8.765625 31.816406 -8.765625 31.816406 -7.070312 L 31.816406 -5.867188 C 31.816406 -2.261719 32.664062 0 35.703125 0 L 53.027344 0 C 51.117188 -1.910156 50.550781 -4.3125 50.550781 -8.34375 L 50.550781 -41.148438 C 50.550781 -45.179688 51.117188 -47.582031 53.027344 -49.492188 L 29.339844 -49.492188 C 31.25 -47.582031 31.816406 -45.179688 31.816406 -41.148438 L 31.816406 -21.917969 C 31.816406 -14.070312 28.847656 -11.878906 25.59375 -11.878906 C 22.484375 -11.878906 21.5625 -14.917969 21.5625 -18.171875 L 21.5625 -41.148438 C 21.5625 -45.179688 22.128906 -47.582031 24.039062 -49.492188 Z M 0.351562 -49.492188 "/></g></g></g><g fill="#000000" fill-opacity="1"><g transform="translate(91.058828, 200.607877)"><g><path d="M 1.765625 -11.03125 C 1.765625 -4.242188 7.496094 1.058594 14.351562 1.058594 C 24.464844 1.058594 26.511719 -5.515625 29.484375 -5.515625 C 30.542969 -5.515625 31.109375 -4.242188 31.320312 -3.039062 C 31.675781 -1.132812 32.875 0 34.996094 0 L 52.320312 0 C 50.410156 -1.910156 49.84375 -4.3125 49.84375 -8.34375 L 49.84375 -29.339844 C 49.84375 -39.453125 42.210938 -50.550781 25.949219 -50.550781 C 18.453125 -50.550781 11.03125 -49.492188 6.222656 -44.894531 C 4.382812 -43.199219 4.808594 -40.652344 4.808594 -38.25 L 4.808594 -34.363281 C 4.808594 -33.160156 5.867188 -32.097656 7 -32.097656 C 11.382812 -32.097656 15.980469 -46.523438 24.886719 -46.664062 C 30.121094 -46.734375 31.039062 -42.632812 31.039062 -39.523438 C 31.039062 -38.25 30.542969 -36.835938 28.492188 -36.410156 C 15.199219 -33.65625 1.765625 -26.089844 1.765625 -11.03125 Z M 28.492188 -31.816406 C 30.402344 -31.816406 31.039062 -30.613281 31.039062 -27.433594 C 31.039062 -23.050781 31.109375 -20.433594 31.109375 -15.980469 C 31.109375 -11.382812 29.199219 -7.917969 25.382812 -7.917969 C 20.148438 -7.917969 18.664062 -12.726562 18.664062 -17.675781 C 18.664062 -26.371094 23.898438 -31.816406 28.492188 -31.816406 Z M 28.492188 -31.816406 "/></g></g></g><g fill="#000000" fill-opacity="1"><g transform="translate(143.729787, 200.607877)"><g><path d="M 24.390625 0 C 22.484375 -1.910156 21.917969 -4.3125 21.917969 -8.34375 L 21.917969 -27.574219 C 21.917969 -35.421875 24.886719 -37.613281 28.140625 -37.613281 C 31.25 -37.613281 32.167969 -34.574219 32.167969 -31.320312 L 32.167969 -8.34375 C 32.167969 -4.3125 31.605469 -1.910156 29.695312 0 L 53.378906 0 C 51.472656 -1.910156 50.90625 -4.3125 50.90625 -8.34375 L 50.90625 -20.433594 L 50.835938 -33.9375 C 50.835938 -41.289062 49.066406 -50.550781 38.746094 -50.550781 C 26.796875 -50.550781 25.3125 -40.726562 22.414062 -40.726562 C 22.128906 -40.726562 21.917969 -40.726562 21.917969 -42.421875 L 21.917969 -43.625 C 21.917969 -47.230469 21.070312 -49.492188 18.027344 -49.492188 L 0.707031 -49.492188 C 2.617188 -47.582031 3.179688 -45.179688 3.179688 -41.148438 L 3.179688 -8.34375 C 3.179688 -4.3125 2.617188 -1.910156 0.707031 0 Z M 24.390625 0 "/></g></g></g><g fill="#000000" fill-opacity="1"><g transform="translate(197.461237, 200.607877)"><g/></g></g><g fill="#000000" fill-opacity="1"><g transform="translate(222.205993, 200.607877)"><g><path d="M 0.351562 -62.148438 C 3.746094 -61.226562 3.394531 -57.550781 3.394531 -56.703125 L 3.394531 -5.796875 C 3.394531 -2.191406 4.242188 0 7.28125 0 L 24.605469 0 C 22.695312 -1.910156 22.128906 -4.3125 22.128906 -8.34375 L 22.128906 -69.003906 C 22.128906 -70.417969 22.058594 -71.761719 20.007812 -71.761719 C 15.835938 -71.761719 2.828125 -65.398438 0.0703125 -64.054688 C -0.0703125 -63.984375 -0.707031 -63.84375 -0.707031 -63.136719 C -0.707031 -62.289062 0.140625 -62.21875 0.351562 -62.148438 Z M 0.351562 -62.148438 "/></g></g></g><g fill="#000000" fill-opacity="1"><g transform="translate(247.51634, 200.607877)"><g><path d="M 0.351562 -49.492188 C 2.261719 -47.582031 2.828125 -45.179688 2.828125 -41.148438 L 2.828125 -29.058594 L 2.898438 -15.554688 C 2.898438 -8.203125 4.667969 1.058594 14.988281 1.058594 C 26.9375 1.058594 28.421875 -8.765625 31.320312 -8.765625 C 31.605469 -8.765625 31.816406 -8.765625 31.816406 -7.070312 L 31.816406 -5.867188 C 31.816406 -2.261719 32.664062 0 35.703125 0 L 53.027344 0 C 51.117188 -1.910156 50.550781 -4.3125 50.550781 -8.34375 L 50.550781 -41.148438 C 50.550781 -45.179688 51.117188 -47.582031 53.027344 -49.492188 L 29.339844 -49.492188 C 31.25 -47.582031 31.816406 -45.179688 31.816406 -41.148438 L 31.816406 -21.917969 C 31.816406 -14.070312 28.847656 -11.878906 25.59375 -11.878906 C 22.484375 -11.878906 21.5625 -14.917969 21.5625 -18.171875 L 21.5625 -41.148438 C 21.5625 -45.179688 22.128906 -47.582031 24.039062 -49.492188 Z M 0.351562 -49.492188 "/></g></g></g><g fill="#000000" fill-opacity="1"><g transform="translate(301.247789, 200.607877)"><g><path d="M 0 -41.925781 C 0 -41.078125 0.847656 -41.007812 1.058594 -40.9375 C 3.746094 -40.019531 3.394531 -36.339844 3.394531 -35.492188 L 3.394531 -8.34375 C 3.394531 -4.3125 2.828125 -1.910156 0.917969 0 L 24.605469 0 C 22.695312 -1.910156 22.128906 -4.3125 22.128906 -8.34375 L 22.128906 -47.792969 C 22.128906 -49.207031 22.058594 -50.550781 20.007812 -50.550781 C 15.835938 -50.550781 3.535156 -44.1875 0.777344 -42.847656 C 0.636719 -42.773438 0 -42.632812 0 -41.925781 Z M 12.585938 -74.875 C 6.363281 -74.875 2.261719 -70.773438 2.261719 -64.550781 C 2.261719 -58.328125 6.363281 -54.230469 12.585938 -54.230469 C 18.808594 -54.230469 22.90625 -58.328125 22.90625 -64.550781 C 22.90625 -70.773438 18.808594 -74.875 12.585938 -74.875 Z M 12.585938 -74.875 "/></g></g></g><g fill="#000000" fill-opacity="1"><g transform="translate(326.204628, 200.607877)"><g><path d="M 1.058594 -35.351562 C 1.058594 -21.492188 15.980469 -16.96875 27.433594 -16.96875 C 32.804688 -16.96875 36.976562 -17.886719 39.59375 -17.886719 C 41.503906 -17.886719 42.5625 -17.394531 42.5625 -15.695312 C 42.5625 -12.019531 37.472656 -9.191406 32.59375 -9.191406 C 19.65625 -9.191406 12.445312 -18.523438 8.203125 -18.523438 C 5.300781 -18.523438 1.414062 -8.34375 1.414062 -5.300781 C 1.414062 -1.695312 15.484375 1.058594 25.171875 1.058594 C 33.160156 1.058594 46.378906 -2.96875 46.378906 -16.050781 C 46.378906 -29.695312 32.453125 -33.371094 19.9375 -35.5625 C 14 -36.625 9.261719 -38.039062 9.261719 -41.503906 C 9.261719 -45.039062 12.445312 -46.378906 14.917969 -46.378906 C 23.757812 -46.378906 30.542969 -32.453125 39.945312 -32.453125 C 42.492188 -32.453125 46.523438 -37.332031 46.523438 -42.066406 C 46.523438 -46.167969 36.269531 -50.550781 23.828125 -50.550781 C 13.152344 -50.550781 1.058594 -47.160156 1.058594 -35.351562 Z M 1.058594 -35.351562 "/></g></g></g><g fill="#000000" fill-opacity="1"><g transform="translate(373.777761, 200.607877)"><g/></g></g></svg>