<svg xmlns="http://www.w3.org/2000/svg" xmlns:xlink="http://www.w3.org/1999/xlink" width="500" zoomAndPan="magnify" viewBox="0 0 375 374.999991" height="500" preserveAspectRatio="xMidYMid meet" version="1.0"><defs><g/></defs><g fill="#000000" fill-opacity="1"><g transform="translate(32.160932, 217.90692)"><g><path d="M 1.765625 -35.347656 C 1.765625 -13.503906 12.867188 1.058594 29.621094 1.058594 C 46.234375 1.058594 57.40625 -13.503906 57.40625 -35.347656 C 57.40625 -57.191406 46.234375 -71.753906 29.621094 -71.753906 C 12.867188 -71.753906 1.765625 -57.191406 1.765625 -35.347656 Z M 23.894531 -66.949219 C 38.8125 -66.949219 49.699219 -3.746094 33.933594 -3.746094 C 21.351562 -3.746094 10.675781 -66.949219 23.894531 -66.949219 Z M 23.894531 -66.949219 "/></g></g></g><g fill="#000000" fill-opacity="1"><g transform="translate(91.326345, 217.90692)"><g><path d="M 0.707031 0 L 24.390625 0 C 22.480469 -1.910156 21.914062 -4.3125 21.914062 -8.34375 L 21.914062 -27.570312 C 21.914062 -31.460938 22.765625 -36.832031 28.703125 -36.832031 C 35.558594 -36.832031 34.78125 -30.609375 37.820312 -30.609375 C 39.09375 -30.609375 40.71875 -34.359375 42.699219 -38.246094 C 44.46875 -41.78125 46.515625 -45.457031 46.515625 -46.304688 C 46.515625 -49.0625 41.425781 -50.546875 37.679688 -50.546875 C 26.582031 -50.546875 24.882812 -40.71875 22.410156 -40.71875 C 22.128906 -40.71875 21.914062 -40.71875 21.914062 -42.417969 L 21.914062 -43.617188 C 21.914062 -47.222656 21.066406 -49.488281 18.027344 -49.488281 L 0.707031 -49.488281 C 2.617188 -47.578125 3.179688 -45.175781 3.179688 -41.144531 L 3.179688 -8.34375 C 3.179688 -4.3125 2.617188 -1.910156 0.707031 0 Z M 0.707031 0 "/></g></g></g><g fill="#000000" fill-opacity="1"><g transform="translate(138.545569, 217.90692)"><g><path d="M 8.976562 -6.222656 C 13.785156 -1.34375 20.078125 1.058594 26.511719 1.058594 C 33.085938 1.058594 39.800781 -1.554688 44.960938 -6.785156 C 55.070312 -17.039062 55.355469 -33.296875 45.527344 -43.195312 C 40.71875 -48.074219 34.429688 -50.476562 27.996094 -50.476562 C 21.421875 -50.476562 14.703125 -47.859375 9.542969 -42.699219 C -0.636719 -32.449219 -0.847656 -16.1875 8.976562 -6.222656 Z M 23.824219 -46.730469 C 28.417969 -47.4375 33.652344 -38.105469 35.488281 -25.875 C 37.328125 -13.433594 35.136719 -3.039062 30.609375 -2.332031 C 26.015625 -1.625 20.785156 -10.886719 18.875 -23.1875 C 16.96875 -35.558594 19.160156 -46.023438 23.824219 -46.730469 Z M 23.824219 -46.730469 "/></g></g></g><g fill="#000000" fill-opacity="1"><g transform="translate(193.045604, 217.90692)"><g><path d="M 1.058594 -7 C 1.058594 -3.886719 1.625 0 4.878906 0 L 41.78125 0 C 44.46875 0 44.113281 -0.566406 44.113281 -5.089844 C 44.113281 -6.222656 44.183594 -13.363281 44.183594 -15.765625 C 44.183594 -17.53125 44.042969 -18.027344 43.40625 -18.027344 C 41.921875 -18.027344 41.144531 -14.351562 35.417969 -14.351562 L 25.519531 -14.351562 C 23.398438 -14.351562 22.550781 -15.480469 22.550781 -17.601562 C 22.550781 -26.652344 45.597656 -38.671875 45.597656 -47.4375 C 45.597656 -49.910156 42.203125 -49.488281 40.863281 -49.488281 L 1.414062 -49.488281 L 1.414062 -35.347656 C 1.414062 -34.359375 1.980469 -33.367188 2.96875 -33.367188 C 4.878906 -33.367188 4.878906 -35.347656 10.886719 -35.347656 L 27.003906 -35.347656 C 28.277344 -35.347656 29.976562 -35.347656 29.976562 -34.003906 C 29.976562 -30.398438 1.058594 -22.199219 1.058594 -7 Z M 1.058594 -7 "/></g></g></g><g fill="#000000" fill-opacity="1"><g transform="translate(239.699341, 217.90692)"><g><path d="M 1.765625 -23.398438 C 1.765625 -9.472656 14.066406 1.058594 27.640625 1.058594 C 41.214844 1.058594 47.222656 -8.554688 47.222656 -13.925781 C 47.222656 -15.128906 46.589844 -15.410156 46.09375 -15.410156 C 44.679688 -15.410156 43.617188 -11.734375 36.902344 -11.734375 C 26.511719 -11.734375 9.402344 -23.824219 9.402344 -35.347656 C 9.402344 -39.589844 11.59375 -42.699219 15.695312 -42.699219 C 20.289062 -42.699219 24.8125 -39.09375 27.710938 -34.992188 C 30.117188 -31.601562 29.339844 -29.054688 31.035156 -29.054688 C 32.09375 -29.054688 35.914062 -32.730469 38.882812 -35.347656 C 41.425781 -37.609375 44.679688 -40.085938 44.679688 -41.921875 C 44.679688 -45.316406 35.417969 -50.546875 27.78125 -50.546875 C 10.109375 -50.546875 1.765625 -38.105469 1.765625 -23.398438 Z M 1.765625 -23.398438 "/></g></g></g><g fill="#000000" fill-opacity="1"><g transform="translate(288.332333, 217.90692)"><g><path d="M 8.976562 -6.222656 C 13.785156 -1.34375 20.078125 1.058594 26.511719 1.058594 C 33.085938 1.058594 39.800781 -1.554688 44.960938 -6.785156 C 55.070312 -17.039062 55.355469 -33.296875 45.527344 -43.195312 C 40.71875 -48.074219 34.429688 -50.476562 27.996094 -50.476562 C 21.421875 -50.476562 14.703125 -47.859375 9.542969 -42.699219 C -0.636719 -32.449219 -0.847656 -16.1875 8.976562 -6.222656 Z M 23.824219 -46.730469 C 28.417969 -47.4375 33.652344 -38.105469 35.488281 -25.875 C 37.328125 -13.433594 35.136719 -3.039062 30.609375 -2.332031 C 26.015625 -1.625 20.785156 -10.886719 18.875 -23.1875 C 16.96875 -35.558594 19.160156 -46.023438 23.824219 -46.730469 Z M 23.824219 -46.730469 "/></g></g></g></svg>