<svg xmlns="http://www.w3.org/2000/svg" xmlns:xlink="http://www.w3.org/1999/xlink" width="500" zoomAndPan="magnify" viewBox="0 0 375 374.999991" height="500" preserveAspectRatio="xMidYMid meet" version="1.0"><defs><g/></defs><g fill="#000000" fill-opacity="1"><g transform="translate(30.890627, 220.099908)"><g><path d="M 30.398438 1.058594 C 45.457031 1.058594 53.941406 -13.007812 53.941406 -22.128906 C 53.941406 -25.378906 53.019531 -25.945312 52.171875 -25.945312 C 48.707031 -25.945312 48.355469 -15.480469 35.984375 -15.480469 C 19.085938 -15.480469 9.898438 -37.539062 9.898438 -52.101562 C 9.898438 -54.71875 10.957031 -60.65625 15.695312 -60.65625 C 23.824219 -60.65625 28.347656 -54.011719 38.035156 -52.457031 C 39.304688 -52.242188 40.011719 -51.75 40.011719 -50.757812 C 40.011719 -47.859375 25.378906 -44.960938 25.378906 -34.359375 C 25.378906 -28.703125 30.1875 -24.175781 35.914062 -24.175781 C 41.851562 -24.175781 47.152344 -29.054688 47.152344 -34.359375 C 47.152344 -35.773438 46.730469 -38.246094 45.597656 -38.246094 C 44.820312 -38.246094 44.960938 -37.539062 43.476562 -37.539062 C 41.003906 -37.539062 39.378906 -39.589844 39.378906 -41.921875 C 39.304688 -47.082031 45.808594 -52.171875 48.851562 -56.132812 C 50.265625 -57.96875 51.324219 -60.019531 51.960938 -61.503906 C 53.941406 -66.101562 54.929688 -71.753906 52.171875 -71.753906 C 49.980469 -71.753906 48.566406 -68.925781 43.691406 -68.925781 C 37.257812 -68.925781 32.945312 -71.753906 27.429688 -71.753906 C 10.039062 -71.753906 1.765625 -52.878906 1.765625 -35.347656 C 1.765625 -10.957031 14.5625 1.058594 30.398438 1.058594 Z M 30.398438 1.058594 "/></g></g></g><g fill="#000000" fill-opacity="1"><g transform="translate(86.238909, 220.099908)"><g><path d="M 0.351562 -62.140625 C 3.746094 -61.222656 3.394531 -57.546875 3.394531 -56.699219 L 3.394531 -8.34375 C 3.394531 -4.3125 2.828125 -1.910156 0.917969 0 L 24.601562 0 C 22.691406 -1.910156 22.128906 -4.3125 22.128906 -8.34375 L 22.128906 -27.570312 C 22.128906 -35.417969 25.097656 -37.609375 28.347656 -37.609375 C 31.460938 -37.609375 32.378906 -34.570312 32.378906 -31.316406 L 32.378906 -8.34375 C 32.378906 -4.3125 31.8125 -1.910156 29.902344 0 L 53.585938 0 C 51.679688 -1.910156 51.113281 -4.3125 51.113281 -8.34375 L 51.113281 -20.429688 L 51.042969 -33.933594 C 51.042969 -41.285156 49.273438 -50.546875 38.953125 -50.546875 C 27.003906 -50.546875 25.519531 -40.71875 22.621094 -40.71875 C 22.550781 -40.71875 22.339844 -40.71875 22.128906 -40.71875 L 22.128906 -69 C 22.128906 -70.414062 22.058594 -71.753906 20.007812 -71.753906 C 15.835938 -71.753906 2.828125 -65.394531 0.0703125 -64.050781 C -0.0703125 -63.980469 -0.707031 -63.835938 -0.707031 -63.128906 C -0.707031 -62.28125 0.140625 -62.210938 0.351562 -62.140625 Z M 0.351562 -62.140625 "/></g></g></g><g fill="#000000" fill-opacity="1"><g transform="translate(141.233763, 220.099908)"><g><path d="M 1.765625 -11.027344 C 1.765625 -4.242188 7.492188 1.058594 14.351562 1.058594 C 24.460938 1.058594 26.511719 -5.515625 29.480469 -5.515625 C 30.539062 -5.515625 31.105469 -4.242188 31.316406 -3.039062 C 31.671875 -1.132812 32.875 0 34.992188 0 L 52.3125 0 C 50.40625 -1.910156 49.839844 -4.3125 49.839844 -8.34375 L 49.839844 -29.339844 C 49.839844 -39.449219 42.203125 -50.546875 25.945312 -50.546875 C 18.453125 -50.546875 11.027344 -49.488281 6.222656 -44.890625 C 4.382812 -43.195312 4.808594 -40.648438 4.808594 -38.246094 L 4.808594 -34.359375 C 4.808594 -33.15625 5.867188 -32.09375 7 -32.09375 C 11.382812 -32.09375 15.976562 -46.515625 24.882812 -46.660156 C 30.117188 -46.730469 31.035156 -42.628906 31.035156 -39.519531 C 31.035156 -38.246094 30.539062 -36.832031 28.488281 -36.40625 C 15.199219 -33.652344 1.765625 -26.085938 1.765625 -11.027344 Z M 28.488281 -31.8125 C 30.398438 -31.8125 31.035156 -30.609375 31.035156 -27.429688 C 31.035156 -23.046875 31.105469 -20.429688 31.105469 -15.976562 C 31.105469 -11.382812 29.195312 -7.917969 25.378906 -7.917969 C 20.148438 -7.917969 18.664062 -12.726562 18.664062 -17.671875 C 18.664062 -26.371094 23.894531 -31.8125 28.488281 -31.8125 Z M 28.488281 -31.8125 "/></g></g></g><g fill="#000000" fill-opacity="1"><g transform="translate(193.895923, 220.099908)"><g><path d="M 6.007812 -35.347656 C 8.414062 -27.289062 9.613281 -23.472656 11.3125 -16.824219 C 13.148438 -9.683594 15.199219 0 20.996094 0 L 36.480469 0 C 38.457031 0 40.507812 0.0703125 41.992188 -4.242188 C 47.082031 -18.945312 53.164062 -34.640625 53.164062 -41.496094 C 53.164062 -46.09375 51.042969 -50.546875 45.457031 -50.546875 C 38.105469 -50.546875 29.054688 -45.386719 29.054688 -40.933594 C 29.054688 -37.328125 41.851562 -38.8125 41.851562 -20.785156 C 41.851562 -12.867188 39.234375 -4.664062 36.761719 -4.664062 C 33.296875 -4.664062 29.054688 -23.117188 25.804688 -35.347656 C 24.390625 -40.71875 23.046875 -45.527344 24.742188 -49.488281 L 0 -49.488281 C 2.96875 -46.871094 4.3125 -41.074219 6.007812 -35.347656 Z M 6.007812 -35.347656 "/></g></g></g><g fill="#000000" fill-opacity="1"><g transform="translate(248.820087, 220.099908)"><g><path d="M 1.765625 -23.398438 C 1.765625 -9.472656 14.066406 1.058594 27.640625 1.058594 C 41.214844 1.058594 47.222656 -8.554688 47.222656 -13.925781 C 47.222656 -15.128906 46.589844 -15.410156 46.09375 -15.410156 C 44.679688 -15.410156 43.617188 -11.734375 36.902344 -11.734375 C 28.773438 -11.734375 17.390625 -19.015625 17.390625 -21.5625 C 17.390625 -22.765625 18.308594 -22.691406 19.015625 -22.691406 C 31.460938 -22.691406 46.871094 -19.9375 46.871094 -31.671875 C 46.871094 -41.425781 39.730469 -50.546875 27.148438 -50.546875 C 10.605469 -50.546875 1.765625 -38.882812 1.765625 -23.398438 Z M 9.683594 -36.335938 C 9.683594 -40.367188 13.855469 -42.839844 17.816406 -42.839844 C 23.753906 -42.839844 32.238281 -38.742188 32.238281 -31.386719 C 32.238281 -26.652344 24.390625 -26.085938 17.746094 -26.085938 C 12.019531 -26.085938 9.683594 -31.316406 9.683594 -36.335938 Z M 9.683594 -36.335938 "/></g></g></g><g fill="#000000" fill-opacity="1"><g transform="translate(297.453079, 220.099908)"><g><path d="M 1.058594 -7 C 1.058594 -3.886719 1.625 0 4.878906 0 L 41.78125 0 C 44.46875 0 44.113281 -0.566406 44.113281 -5.089844 C 44.113281 -6.222656 44.183594 -13.363281 44.183594 -15.765625 C 44.183594 -17.53125 44.042969 -18.027344 43.40625 -18.027344 C 41.921875 -18.027344 41.144531 -14.351562 35.417969 -14.351562 L 25.519531 -14.351562 C 23.398438 -14.351562 22.550781 -15.480469 22.550781 -17.601562 C 22.550781 -26.652344 45.597656 -38.671875 45.597656 -47.4375 C 45.597656 -49.910156 42.203125 -49.488281 40.863281 -49.488281 L 1.414062 -49.488281 L 1.414062 -35.347656 C 1.414062 -34.359375 1.980469 -33.367188 2.96875 -33.367188 C 4.878906 -33.367188 4.878906 -35.347656 10.886719 -35.347656 L 27.003906 -35.347656 C 28.277344 -35.347656 29.976562 -35.347656 29.976562 -34.003906 C 29.976562 -30.398438 1.058594 -22.199219 1.058594 -7 Z M 1.058594 -7 "/></g></g></g></svg>